<svg width="64" height="64" viewBox="0 0 64 64" fill="none" xmlns="http://www.w3.org/2000/svg">
<rect x="31.8198" width="45" height="45" rx="6" transform="rotate(45 31.8198 0)" fill="#2A72FD"/>
<path d="M25.875 28.3438H28.5469C28.7188 26.1094 30.2188 24.7188 32.5781 24.7188C34.9062 24.7188 36.4062 26.1406 36.4062 28.0781C36.4062 29.75 35.7031 30.7344 33.8906 31.8438C31.75 33.125 30.75 34.5312 30.7656 36.5938V38.0312H33.5V37.0156C33.5 35.375 34.0625 34.5 36.0469 33.3281C38.0469 32.125 39.3125 30.3906 39.3125 27.9375C39.3125 24.7188 36.625 22.2812 32.6875 22.2812C28.2969 22.2812 26.0469 24.9688 25.875 28.3438ZM32.1406 45.1562C33.1562 45.1562 33.9219 44.375 33.9219 43.375C33.9219 42.3594 33.1562 41.5938 32.1406 41.5938C31.1406 41.5938 30.3594 42.3594 30.3594 43.375C30.3594 44.375 31.1406 45.1562 32.1406 45.1562Z" fill="white"/>
</svg>
