<svg width="18" height="18" viewBox="0 0 18 18" fill="none" xmlns="http://www.w3.org/2000/svg">
<g clip-path="url(#clip0)">
<path d="M12.475 8.86803L12.481 8.85903L12.48 8.85803L12.475 8.86803Z" fill="#879BCE"/>
<path d="M17.211 10.1071C17.211 10.1071 17.028 9.85806 16.595 9.69206C16.595 9.69206 16.559 9.68106 16.503 9.66306C16.117 9.48206 15.751 9.36606 15.751 9.36606C15.673 9.33806 15.605 9.31006 15.541 9.28306C15.28 9.15306 15.091 9.00406 15.091 9.00406C15.091 9.00406 15.089 9.00206 14.888 8.80106C15.249 8.42706 15.514 7.91906 15.597 7.43306C15.661 7.36706 15.726 7.26106 15.754 7.09206C15.806 6.90406 15.871 6.57506 15.756 6.42206C15.749 6.41406 15.743 6.40706 15.736 6.40006C15.844 6.00406 15.982 5.18606 15.492 4.62806C15.448 4.57206 15.174 4.24406 14.586 4.07006L14.306 3.97306C13.843 3.83006 13.552 3.79906 13.54 3.79706C13.519 3.79506 13.497 3.79706 13.477 3.80206C13.461 3.80706 13.406 3.82106 13.364 3.81506C13.253 3.79906 13.087 3.85606 13.057 3.86806C13.019 3.88306 12.123 4.24206 11.852 5.07606C11.827 5.14306 11.718 5.49806 11.862 6.36806C11.841 6.38206 11.822 6.40006 11.804 6.42206C11.688 6.57506 11.753 6.90206 11.806 7.09106C11.833 7.25806 11.898 7.36306 11.961 7.43006C12.033 7.91006 12.263 8.37206 12.566 8.72606C12.566 8.72606 12.796 9.12406 12.825 9.16106C13.554 10.2411 13.646 12.3231 13.655 12.5571L13.656 12.5721L13.655 12.5881C13.643 13.3161 13.281 13.5691 13.087 13.6531C12.993 13.6951 12.895 13.7321 12.796 13.7701C12.845 13.6981 12.893 13.5731 12.896 13.3521C12.896 13.3521 12.825 10.2931 12.208 9.38006C12.208 9.38006 12.032 9.14006 11.615 8.98106C11.615 8.98106 11.581 8.97006 11.526 8.95306C11.156 8.77906 10.804 8.66806 10.804 8.66806C10.729 8.64106 10.662 8.61506 10.602 8.58806C10.352 8.46306 10.169 8.32006 10.169 8.32006C10.169 8.32006 10.167 8.31806 9.974 8.12406C10.321 7.76406 10.576 7.27606 10.655 6.81006C10.718 6.74706 10.78 6.64406 10.807 6.48206C10.856 6.30106 10.919 5.98506 10.808 5.83806C10.802 5.83106 10.796 5.82406 10.79 5.81706C10.894 5.43606 11.026 4.65006 10.555 4.11306C10.512 4.06006 10.248 3.74406 9.684 3.57706L9.414 3.48506C8.97 3.34806 8.69 3.31706 8.678 3.31606C8.658 3.31406 8.637 3.31606 8.617 3.32206C8.601 3.32606 8.549 3.34006 8.508 3.33506C8.402 3.31906 8.242 3.37406 8.214 3.38506C8.178 3.39906 7.317 3.74406 7.056 4.54606C7.032 4.61106 6.928 4.95206 7.066 5.78806C7.045 5.80206 7.027 5.81906 7.011 5.84006C6.9 5.98606 6.963 6.30206 7.012 6.48306C7.039 6.64406 7.101 6.74606 7.162 6.80906C7.231 7.27006 7.452 7.71506 7.744 8.05506L7.661 8.18206L7.659 8.17406L7.656 8.19106C7.657 8.18806 7.659 8.18406 7.66 8.18206V8.18306L7.655 8.19106C7.538 8.55606 6.137 8.98206 6.137 8.98206C5.721 9.14106 5.545 9.38106 5.545 9.38106C4.929 10.2941 4.857 13.3521 4.857 13.3521C4.86 13.5711 4.907 13.6941 4.954 13.7661C4.859 13.7311 4.762 13.6951 4.671 13.6551C4.477 13.5711 4.114 13.3161 4.103 12.5891V12.5731V12.5571C4.112 12.3231 4.205 10.2431 4.92 9.18106C4.959 9.12706 5.087 8.96706 5.323 8.80206C5.323 8.80206 5.323 8.80106 5.322 8.80106C5.683 8.42706 5.948 7.91906 6.031 7.43306C6.095 7.36706 6.16 7.26106 6.189 7.09206C6.241 6.90406 6.306 6.57506 6.19 6.42206C6.184 6.41406 6.177 6.40706 6.171 6.40006C6.279 6.00406 6.417 5.18606 5.927 4.62806C5.886 4.57206 5.611 4.24406 5.023 4.07006L4.743 3.97306C4.28 3.83006 3.989 3.79906 3.977 3.79706C3.956 3.79506 3.934 3.79706 3.914 3.80206C3.898 3.80806 3.843 3.82206 3.8 3.81606C3.69 3.80006 3.524 3.85706 3.494 3.86906C3.456 3.88306 2.561 4.24206 2.289 5.07706C2.264 5.14406 2.156 5.49906 2.299 6.36906C2.278 6.38306 2.258 6.40106 2.241 6.42306C2.125 6.57606 2.191 6.90306 2.242 7.09206C2.269 7.25906 2.334 7.36406 2.397 7.43106C2.469 7.91106 2.699 8.37306 3.003 8.72706L2.917 8.85906L2.915 8.85006L2.911 8.86806C2.912 8.86506 2.915 8.86106 2.916 8.85806V8.85906L2.911 8.86806C2.79 9.24806 1.332 9.69106 1.332 9.69106C0.899 9.85706 0.716 10.1061 0.716 10.1061C0.075 11.0561 0 13.1711 0 13.1711C0.008 13.6531 0.217 13.7041 0.217 13.7041C1.69 14.3611 4.002 14.4771 4.002 14.4771C4.127 14.4811 4.242 14.4741 4.358 14.4671L4.361 14.4791C4.361 14.4791 5.231 14.4341 6.242 14.2491C7.461 14.5441 8.702 14.6071 8.702 14.6071C8.821 14.6101 8.933 14.6031 9.044 14.5961L9.047 14.6081C9.047 14.6081 10.342 14.5421 11.585 14.2291C12.638 14.4301 13.564 14.4771 13.564 14.4771C13.688 14.4811 13.804 14.4741 13.92 14.4671L13.923 14.4791C13.923 14.4791 16.235 14.3621 17.708 13.7061C17.708 13.7061 17.916 13.6551 17.924 13.1721C17.927 13.1731 17.852 11.0581 17.211 10.1071Z" fill="#879BCE"/>
</g>
<defs>
<clipPath id="clip0">
<rect width="17.924" height="17.924" fill="white"/>
</clipPath>
</defs>
</svg>
