<svg width="45" height="45" viewBox="0 0 45 45" fill="none" xmlns="http://www.w3.org/2000/svg">
<circle cx="22.5" cy="22.5" r="22.5" fill="#404AC7"/>
<path d="M27.6194 29.9708H17.3445V15.3447H27.6198C27.8476 15.3447 28.0324 15.1598 28.0324 14.9321V13.4126C28.0324 13.1849 27.8476 13 27.6198 13H15.4126C15.1849 13 15 13.1849 15 13.4126V31.9024C15 32.1302 15.1849 32.3151 15.4126 32.3151H27.6194C27.8473 32.3151 28.032 32.1302 28.032 31.9024V30.3834C28.032 30.1552 27.8476 29.9708 27.6194 29.9708Z" fill="white"/>
<path d="M34.8787 22.3659L29.3245 16.8122C29.1698 16.6572 28.8958 16.6574 28.7411 16.8122L27.4234 18.1301C27.2623 18.2912 27.2623 18.5524 27.4234 18.7135L29.9321 21.2226H19.0719C18.8441 21.2226 18.6593 21.4074 18.6593 21.6352V23.6801C18.6593 23.9079 18.8441 24.0927 19.0719 24.0927H29.9327L27.424 26.6018C27.2629 26.763 27.2629 27.0242 27.424 27.1853L28.7417 28.5034C28.8191 28.5807 28.9243 28.6243 29.0334 28.6243C29.143 28.6243 29.2478 28.5807 29.3251 28.5034L34.8793 22.9496C34.9567 22.8722 35.0002 22.767 35.0002 22.6579C35 22.5481 34.9561 22.4433 34.8787 22.3659Z" fill="white"/>
</svg>
