<svg width="45" height="45" viewBox="0 0 45 45" fill="none" xmlns="http://www.w3.org/2000/svg">
<rect width="45" height="45" rx="6" fill="#21CDC3"/>
<path d="M33.3796 12H11.5351C9.5851 12 8 13.5851 8 15.5351V30.4649C8 32.4149 9.5851 34 11.5351 34H33.3736C35.3235 34 36.9086 32.4149 36.9086 30.4649V15.5411C36.9146 13.5911 35.3295 12 33.3796 12ZM35.2996 30.4649C35.2996 31.5237 34.4383 32.385 33.3796 32.385H11.5351C10.4763 32.385 9.61501 31.5237 9.61501 30.4649V15.5411C9.61501 14.4823 10.4763 13.621 11.5351 13.621H33.3736C34.4323 13.621 35.2936 14.4823 35.2936 15.5411V30.4649H35.2996Z" fill="white"/>
</svg>
