<svg width="512" height="512" xmlns="http://www.w3.org/2000/svg">

 <g>
  <title>background</title>
  <rect fill="none" id="canvas_background" height="402" width="582" y="-1" x="-1"/>
 </g>
 <g>
  <title>Layer 1</title>
  <circle id="svg_1" r="256" fill="#00bf5f" cy="256" cx="256"/>
  <path id="svg_3" fill="#FFFFFF" d="m256.9,197.5c-33.3,0 -60.3,27.1 -60.3,60.3c0,33.3 27.1,60.3 60.3,60.3s60.3,-27.1 60.3,-60.3c0,-33.2 -27,-60.3 -60.3,-60.3zm0,109.6c-27.2,0 -49.3,-22.1 -49.3,-49.3s22.1,-49.3 49.3,-49.3c27.2,0 49.3,22.1 49.3,49.3s-22.1,49.3 -49.3,49.3z"/>
  <path id="svg_4" fill="#FFFFFF" d="m374.4,216.2l-4.1,0c-4.7,0 -6.5,-3.6 -6.9,-4.6c-0.5,-1.1 -1.7,-4.9 1.6,-8.2l2.9,-2.9c7.2,-7.2 7.2,-19 0,-26.2l-30.1,-30.1c-3.5,-3.5 -8.2,-5.4 -13.1,-5.4c-5,0 -9.6,1.9 -13.1,5.4l-2.9,2.9c-1.8,1.8 -3.9,2.2 -5.2,2.2c-1.9,0 -3.9,-0.8 -5.3,-2.1c-1,-1 -2.3,-2.7 -2.3,-5.4l0,-4.1c0,-10.2 -8.3,-18.6 -18.6,-18.6l-42.5,0c-10.2,0 -18.6,8.3 -18.6,18.6l0,5.2c0,4.7 -3.9,7.5 -7.6,7.5c-1.4,0 -3.4,-0.4 -5.2,-2.2l-2.9,-2.9c-3.5,-3.5 -8.2,-5.4 -13.1,-5.4c-5,0 -9.6,1.9 -13.1,5.4l-30.1,30.1c-3.5,3.5 -5.4,8.2 -5.4,13.1c0,5 1.9,9.6 5.4,13.1l1.9,1.9c3.3,3.3 2.1,7.1 1.6,8.2c-0.5,1.1 -2.3,4.6 -6.9,4.6l-3.1,0c-10.2,0 -18.6,8.3 -18.6,18.6l0,42.5c0,10.2 8.3,18.6 18.6,18.6l4.1,0c4.7,0 6.5,3.6 6.9,4.6c0.5,1.1 1.7,4.9 -1.6,8.2l-2.9,2.9c-3.5,3.5 -5.4,8.2 -5.4,13.1c0,5 1.9,9.6 5.4,13.1l30.1,30.1c3.5,3.5 8.2,5.4 13.1,5.4c5,0 9.6,-1.9 13.1,-5.4l2.9,-2.9c1.8,-1.8 3.9,-2.2 5.2,-2.2c3.7,0 7.6,2.8 7.6,7.5l0,4.1c0,10.2 8.3,18.6 18.6,18.6l42.5,0c10.2,0 18.6,-8.3 18.6,-18.6l0,-3.1c0,-4.7 3.9,-7.5 7.6,-7.5c1.4,0 3.4,0.4 5.2,2.2l2.9,2.9c3.5,3.5 8.2,5.4 13.1,5.4c5,0 9.6,-1.9 13.1,-5.4l30.1,-30.1c7.2,-7.2 7.2,-19 0,-26.2l-4,-4c-3.3,-3.3 -2.1,-7.1 -1.6,-8.2c0.5,-1.1 2.3,-4.6 6.9,-4.6l5.2,0c10.2,0 18.6,-8.3 18.6,-18.6l0,-42.5c0,-10.3 -8.3,-18.6 -18.6,-18.6zm7.5,61.1c0,4.1 -3.4,7.5 -7.5,7.5l-5.2,0c-7.6,0 -14.2,4.4 -17.1,11.5c-2.9,7.1 -1.4,14.8 4,20.2l4,4c2.9,2.9 2.9,7.7 0,10.6l-30.1,30c-1.4,1.4 -3.3,2.2 -5.3,2.2c-2,0 -3.9,-0.8 -5.3,-2.2l-2.9,-2.9c-3.5,-3.5 -8.1,-5.5 -13,-5.5c-10.3,0 -18.6,8.3 -18.6,18.6l0,3.1c0,4.1 -3.4,7.5 -7.5,7.5l-42.5,0c-4.1,0 -7.5,-3.4 -7.5,-7.5l0,-4.1c0,-10.2 -8.4,-18.6 -18.6,-18.6c-4.9,0 -9.5,1.9 -13,5.5l-2.9,2.9c-1.4,1.4 -3.3,2.2 -5.3,2.2c-2,0 -3.9,-0.8 -5.3,-2.2l-30.4,-30.1c-1.4,-1.4 -2.2,-3.3 -2.2,-5.3c0,-2 0.8,-3.9 2.2,-5.3l2.9,-2.9c5.4,-5.4 6.9,-13.2 4,-20.2c-2.9,-7.1 -9.5,-11.5 -17.1,-11.5l-4.1,0c-4.1,0 -7.5,-3.4 -7.5,-7.5l0,-42.5c0,-4.1 3.4,-7.5 7.5,-7.5l3.1,0c7.6,0 14.2,-4.4 17.1,-11.5c2.9,-7.1 1.4,-14.8 -4,-20.2l-1.9,-1.9c-1.4,-1.4 -2.2,-3.3 -2.2,-5.3c0,-2 0.8,-3.9 2.2,-5.3l30.1,-30.1c1.4,-1.4 3.3,-2.2 5.3,-2.2c2,0 3.9,0.8 5.3,2.2l2.9,2.9c3.5,3.5 8.1,5.5 13,5.5c10.3,0 18.6,-8.3 18.6,-18.6l0,-5.2c0,-4.1 3.4,-7.5 7.5,-7.5l42.5,0c4.1,0 7.5,3.4 7.5,7.5l0,4.1c0,5.2 2.1,10 5.8,13.5c3.5,3.2 8.1,5.1 12.8,5.1c4.9,0 9.5,-1.9 13,-5.5l2.9,-2.9c1.4,-1.4 3.3,-2.2 5.3,-2.2c2,0 3.9,0.8 5.3,2.2l30.1,30.1c2.9,2.9 2.9,7.7 0,10.6l-2.9,2.9c-5.4,5.4 -6.9,13.2 -4,20.2c2.9,7.1 9.5,11.5 17.1,11.5l4.1,0c4.1,0 7.5,3.4 7.5,7.5l0,42.6l0.3,0z"/>
 </g>
</svg>