<svg width="45" height="45" viewBox="0 0 45 45" fill="none" xmlns="http://www.w3.org/2000/svg">
<circle cx="22.5" cy="22.5" r="22.5" fill="#F48218"/>
<g filter="url(#filter0_d)">
<path d="M23.0001 11.0408C19.8995 11.0408 16.9584 12.2232 14.7217 14.3689C14.6138 14.4723 14.4427 14.4686 14.3395 14.361C14.2361 14.2532 14.2396 14.0821 14.3474 13.9787C16.686 11.7351 19.7578 10.5 23.0001 10.5C29.8921 10.5 35.5 16.1079 35.5 23.0001C35.5 26.1346 34.3335 29.1331 32.2157 31.4435C29.8527 34.0214 26.4931 35.5 22.9999 35.5C19.507 35.5 16.1473 34.0214 13.7842 31.4436C11.6662 29.1331 10.5 26.135 10.5 23.0001C10.5 22.8507 10.6211 22.7297 10.7704 22.7297C10.9197 22.7297 11.0408 22.8507 11.0408 23.0001C11.0408 25.4878 11.8091 27.887 13.2281 29.8947L13.2397 29.9112L13.2526 29.9266L14.4358 31.3435L14.4487 31.3589L14.4628 31.3733C16.705 33.6572 19.7927 34.9593 23.0001 34.9593C26.343 34.9593 29.5561 33.5448 31.8171 31.0782C33.8433 28.868 34.9593 25.9987 34.9593 23.0001C34.9593 16.4052 29.5949 11.0408 23.0001 11.0408Z" stroke="white"/>
</g>
<defs>
<filter id="filter0_d" x="6" y="10" width="34" height="34" filterUnits="userSpaceOnUse" color-interpolation-filters="sRGB">
<feFlood flood-opacity="0" result="BackgroundImageFix"/>
<feColorMatrix in="SourceAlpha" type="matrix" values="0 0 0 0 0 0 0 0 0 0 0 0 0 0 0 0 0 0 127 0"/>
<feOffset dy="4"/>
<feGaussianBlur stdDeviation="2"/>
<feColorMatrix type="matrix" values="0 0 0 0 0 0 0 0 0 0 0 0 0 0 0 0 0 0 0.25 0"/>
<feBlend mode="normal" in2="BackgroundImageFix" result="effect1_dropShadow"/>
<feBlend mode="normal" in="SourceGraphic" in2="effect1_dropShadow" result="shape"/>
</filter>
</defs>
</svg>
