<?xml version="1.0" encoding="utf-8"?>
<!-- Generator: Adobe Illustrator 23.0.1, SVG Export Plug-In . SVG Version: 6.00 Build 0)  -->
<svg version="1.1" id="Layer_1" xmlns="http://www.w3.org/2000/svg" xmlns:xlink="http://www.w3.org/1999/xlink" x="0px" y="0px"
	 viewBox="0 0 258 310" style="enable-background:new 0 0 258 310;" xml:space="preserve">
<style type="text/css">
	.st0{fill:#B0874F;}
	.st1{fill:#FFFFFF;}
</style>
<path class="st0" d="M35.1,110.5h195.3V97.6H35.1V78c0-8.3,7.3-14.8,15.6-14.8h29.5V75c0,3.6,2.9,6.4,6.4,6.4c3.6,0,6.4-2.9,6.4-6.4
	V63.2h87V75c0,3.6,2.9,6.4,6.4,6.4s6.4-2.9,6.4-6.4V63.2h29.5c3,0,5.7,0.9,8.1,2.4v-14c-2.4-0.7-4.9-1.1-7.6-1.2c-0.2,0-0.3,0-0.5,0
	h-29.5V38.1c0-3.6-2.9-6.4-6.4-6.4s-6.4,2.9-6.4,6.4v12.3H93.1V38.1c0-3.6-2.9-6.4-6.4-6.4c-3.6,0-6.4,2.9-6.4,6.4v12.3H50.7
	c-15.4,0-28.4,12.2-28.4,27.6v179.9c0,2,0.2,4,0.6,5.8h13.5c-0.8-1.8-1.3-3.7-1.3-5.8C35.1,257.9,35.1,110.5,35.1,110.5z"/>
<title>Application Support</title>
<path class="st1" d="M215.9,276.6c14.9,0.2,27.2-11.8,27.4-26.8c0-0.2,0-0.4,0-0.6V69.3c0.2-15-11.8-27.4-26.9-27.6
	c-0.2,0-0.3,0-0.5,0h-29.5V29.4c0-3.6-2.9-6.4-6.4-6.4c-3.6,0-6.4,2.9-6.4,6.4v12.3h-87V29.4c0-3.6-2.9-6.4-6.4-6.4
	c-3.6,0-6.4,2.9-6.4,6.4v12.3H44.3c-15.4,0-28.4,12.2-28.4,27.6v179.9c0,15.4,13,27.4,28.4,27.4H215.9z M44.3,54.5h29.5v11.7
	c0,3.6,2.9,6.4,6.4,6.4c3.6,0,6.4-2.9,6.4-6.4V54.5h86.9v11.7c0,3.6,2.9,6.4,6.4,6.4c3.6,0,6.4-2.9,6.4-6.4V54.5h29.5
	c7.9-0.1,14.4,6.3,14.5,14.2c0,0.2,0,0.3,0,0.5v19.6H28.7V69.3C28.7,61,36,54.5,44.3,54.5z M28.7,249.2V101.7h201.7v147.5
	c0.2,7.8-6,14.3-13.8,14.5c-0.2,0-0.4,0-0.7,0H44.3C36,263.7,28.7,257.5,28.7,249.2z"/>
<path class="st0" d="M68.2,168.3H192c3.6,0,6.4-2.9,6.4-6.4c0-3.6-2.9-6.4-6.4-6.4H68.2c-3.6,0-6.4,2.9-6.4,6.4
	C61.8,165.4,64.6,168.3,68.2,168.3z"/>
<path class="st0" d="M68.2,210.1h71.6c3.6,0,6.4-2.9,6.4-6.4s-2.9-6.4-6.4-6.4H68.2c-3.6,0-6.4,2.9-6.4,6.4S64.6,210.1,68.2,210.1z"
	/>
</svg>
