<?xml version="1.0" encoding="utf-8"?>
<!-- Generator: Adobe Illustrator 23.0.1, SVG Export Plug-In . SVG Version: 6.00 Build 0)  -->
<svg version="1.1" id="Layer_1" xmlns="http://www.w3.org/2000/svg" xmlns:xlink="http://www.w3.org/1999/xlink" x="0px" y="0px"
	 viewBox="0 0 258 310" style="enable-background:new 0 0 258 310;" xml:space="preserve">
<style type="text/css">
	.st0{fill:#FFFFFF;}
	.st1{fill:#B0874F;}
</style>
<title>Application Support</title>
<path class="st0" d="M218.9,196.8c0.8-8.7,8.6-29.5,11.7-37.1c16.3-31.3,15.4-68.8-2.5-99.2c-17.3-30.1-48.9-49.1-83.6-50.3
	c-0.9,0-1.9-0.1-2.8-0.1C82.9,9.4,33.9,55.2,30.7,114c-0.1,1.8-0.2,15.9-0.2,20.8L11,186c-1.2,3.3-0.8,7,1.2,10
	c2,2.9,5.2,4.7,8.8,4.7h25v26h12v-32.3c0-3.3-3.2-5.7-6.5-5.7H22.9l19.2-50.5c0.3-0.7,0.4-1.4,0.4-2.2c0-9.4,0.1-20.1,0.2-21.3
	c2.8-52.4,46.4-93.3,98.9-92.6c0.5,0,1,0,1.4,0h1.1c30.6,1.1,58.4,17.9,73.7,44.4c15.8,27,16.6,60.2,2.1,87.9
	c-0.1,0.2-0.2,0.3-0.2,0.5c-1.2,2.9-11.5,28.7-12.6,40.8c-1.6,16.9,0.1,39.6,5.1,67.1c2.1,12,4.4,21.9,6,28.9h-84.5l-7.6-30.1
	c-2.3-9.3-10.7-15.9-20.3-15.9h-0.1c-3.2,0-6.9,0-10.5,0c-2.8,0-5.5,0-8.1,0l0.1,12.1c1.5,0,3,0,4.6,0c4.6,0,9.6,0,13.9,0l0,0
	c4.1-0.1,7.6,2.7,8.6,6.6l8.7,34.7c0.7,2.7,3,4.6,5.8,4.7h96.8c3.5-0.2,6.1-3.1,6-6.5c0-0.4-0.1-0.9-0.2-1.3
	C231.4,295.3,215.4,234.7,218.9,196.8z"/>
<path class="st1" d="M186.7,158.2l-0.1-3.9c-0.2-18.3-13.6-33.7-31.7-36.4V23.2c-3.6-0.6-7.2-0.9-10.9-1.1h-1.1V118
	c-7.8,1.2-14.9,5-20.4,10.7c-7,7.1-10.8,16.7-10.6,26.6l0.1,3.9c0.3,17.7,12.9,32.8,30.3,36.2l0.1,9c0.1,15.9-12.7,29-28.6,29.2
	l-21,0.1l-0.1-7.2c-0.1-3.2-2.7-5.8-6-5.7l0,0H45.1c-5.3-0.1-10.5,2.1-14.2,5.9c-3.7,3.8-5.8,9-5.7,14.3c0.2,11,9.1,19.8,20.1,19.8
	h0.2l41.7-0.7c3.3-0.1,6-2.8,5.9-6.1l-0.1-8.2h2.2l18.7-0.1c22.6-0.2,40.7-18.7,40.5-41.3l-0.1-8.5
	C173.1,193.2,187,177.1,186.7,158.2z M45.4,248.7L45.4,248.7c-4.5-0.1-8.1-3.6-8.2-8.1c0-4.3,3.4-7.9,7.8-7.9c0.1,0,0.1,0,0.2,0
	h35.7l0.2,15.6L45.4,248.7z M167.5,176.3c-4.7,4.8-11.2,7.5-17.9,7.4h-0.2c-13.8,0-25.1-11-25.3-24.8l-0.1-3.8
	c-0.1-13.9,11-25.2,24.9-25.4c0.1,0,0.2,0,0.3,0h0.2c13.8,0,25.1,11,25.3,24.9v3.9C174.8,165.1,172.2,171.6,167.5,176.3L167.5,176.3
	z"/>
<path class="st1" d="M52.1,148.2c0.3-0.7,0.4-1.4,0.4-2.2c0-9.4,0.1-20.1,0.2-21.3C55.2,75.6,93.9,36,143,32.4V22.1
	c-0.5,0-1,0-1.4,0c-52.5-0.7-96.1,40.2-98.9,92.6c-0.1,1.3-0.1,11.9-0.2,21.3c0,0.8-0.1,1.5-0.4,2.2l-19.2,50.5h13.8L52.1,148.2z"/>
<path class="st1" d="M217.8,76.5c7.3,12.4,11.5,26.4,12.3,40.7c1-17.7-3.3-35.4-12.3-50.7c-13.3-23.2-36.4-39.1-62.8-43.3v10
	C181.4,37.5,204.5,53.4,217.8,76.5z"/>
</svg>
