<?xml version="1.0" encoding="utf-8"?>
<!-- Generator: Adobe Illustrator 23.0.1, SVG Export Plug-In . SVG Version: 6.00 Build 0)  -->
<svg version="1.1" id="Layer_1" xmlns="http://www.w3.org/2000/svg" xmlns:xlink="http://www.w3.org/1999/xlink" x="0px" y="0px"
	 viewBox="0 0 258 310" style="enable-background:new 0 0 258 310;" xml:space="preserve">
<style type="text/css">
	.st0{fill:#B0874F;}
	.st1{fill:#FFFFFF;}
</style>
<path class="st0" d="M102.4,247.9l2-3.3l2.4-7.9c-6.6-2.3-12.9-5.4-18.8-9.3c-2.2-1.4-5.1-1.2-7.1,0.4l-15.1,12.5l-16.1-16.1
	l12.5-15.1c1.7-2,1.8-4.9,0.4-7.2c-5.8-8.7-9.9-18.4-12.1-28.6c-0.5-2.5-2.6-4.4-5.2-4.7l-19.4-1.9V144l19.4-1.9
	c2.6-0.3,4.7-2.2,5.2-4.7c2.3-10.2,6.4-20,12.1-28.7c1.4-2.2,1.2-5.1-0.4-7.1L49.7,86.5l16.1-16.1l15.1,12.5c2,1.7,4.9,1.8,7.2,0.4
	c8.7-5.8,18.4-9.9,28.6-12.1c2.6-0.6,4.5-2.7,4.7-5.3l1.9-19.6H146l1.9,19.6c0.3,2.6,2.2,4.7,4.7,5.3c10.2,2.3,20,6.4,28.7,12.1
	c2.2,1.4,5.1,1.2,7.1-0.4l15-12.5l8.5,8.6l6.6-10.4l-10.4-10.5c-2.2-2.2-5.7-2.4-8.1-0.4l-16,13.2c-7.7-4.6-16-8.1-24.6-10.4
	l-2-20.7c-0.3-3.1-2.9-5.4-6-5.4h-33.7c-3.1,0-5.7,2.3-6,5.4l-2,20.7c-8.7,2.3-17,5.8-24.7,10.4L69.2,57.7c-2.4-2-5.9-1.8-8.1,0.4
	L37.4,81.9C35.2,84.1,35,87.6,37,90l13.2,16c-4.6,7.7-8.1,16-10.4,24.6l-20.6,2c-3,0.3-5.3,2.9-5.3,6v33.7c-0.1,3.1,2.2,5.7,5.3,6
	l20.7,2c2.3,8.7,5.8,17,10.3,24.7L37,220.8c-2,2.4-1.8,5.9,0.4,8.1l23.8,23.8c2.2,2.2,5.7,2.4,8.1,0.4l16-13.2
	C90.6,243.1,96.4,245.8,102.4,247.9z"/>
<title>Application Support</title>
<path class="st1" d="M13.8,172.6l20.7,2c2.3,8.7,5.8,17,10.3,24.7l-13.2,15.9c-2,2.4-1.8,5.9,0.4,8.1L55.7,247
	c2.2,2.2,5.7,2.4,8.1,0.4l16-13.2c7.7,4.6,16,8.1,24.6,10.4l2,20.7c0.3,3.1,2.9,5.4,6,5.4h33.7c3.1,0,5.7-2.3,6-5.4l2-20.7
	c8.7-2.3,17-5.8,24.7-10.4l15.9,13.2c2.4,2,5.9,1.8,8.1-0.4l23.8-23.8c2.2-2.2,2.4-5.7,0.4-8.1l-13.2-16c4.6-7.7,8.1-16,10.4-24.6
	l20.2-2c3-0.3,5.3-2.9,5.2-6v-33.7c0.1-3-2.2-5.7-5.2-6l-20.6-2c-2.3-8.7-5.8-17-10.3-24.7l13.2-15.9c2-2.4,1.8-5.8-0.3-8
	l-23.5-23.8c-2.2-2.2-5.7-2.4-8.1-0.4l-16,13.2c-7.7-4.6-16-8.1-24.6-10.4l-2-20.7c-0.3-3.1-2.9-5.4-6-5.4h-33.7
	c-3.1,0-5.7,2.3-6,5.4l-2,20.7c-8.7,2.3-17,5.8-24.7,10.4l-16-13.1c-2.4-2-5.9-1.8-8.1,0.4L32,76.3c-2.2,2.2-2.4,5.7-0.4,8.1
	l13.2,16c-4.6,7.7-8.1,16-10.4,24.6l-20.6,2c-3,0.3-5.3,2.9-5.3,6v33.7C8.4,169.7,10.7,172.3,13.8,172.6z M20.5,138.4l19.4-1.9
	c2.6-0.3,4.7-2.2,5.2-4.7c2.3-10.2,6.4-20,12.1-28.7c1.4-2.2,1.2-5.1-0.4-7.1L44.3,80.9l16.1-16.1l15.1,12.5c2,1.7,4.9,1.8,7.2,0.4
	c8.7-5.8,18.4-9.9,28.6-12.1c2.6-0.6,4.5-2.7,4.7-5.3l1.9-19.6h22.8l1.9,19.6c0.3,2.6,2.2,4.7,4.7,5.3c10.2,2.3,20,6.4,28.7,12.1
	c2.2,1.4,5.1,1.2,7.1-0.4l15-12.5l15.8,16L201.4,96c-1.7,2-1.8,4.9-0.4,7.2c5.8,8.7,9.9,18.4,12.1,28.6c0.5,2.5,2.5,4.4,5.1,4.7
	l19.4,1.9v22.8l-19.1,1.9c-2.6,0.3-4.7,2.2-5.2,4.7c-2.3,10.2-6.3,20-12.1,28.7c-1.4,2.2-1.2,5.1,0.4,7.1l12.5,15.1L198,234.8
	l-15-12.6c-2-1.7-4.9-1.8-7.2-0.4c-8.7,5.8-18.4,9.9-28.6,12.1c-2.6,0.6-4.5,2.7-4.7,5.3l-1.9,19.6h-22.8l-1.9-19.6
	c-0.2-2.6-2.1-4.7-4.7-5.3c-10.2-2.3-20-6.4-28.7-12.1c-2.2-1.4-5.1-1.2-7.1,0.4l-15.1,12.5l-16.1-16.1l12.5-15.1
	c1.7-2,1.8-4.9,0.4-7.2c-5.8-8.7-9.9-18.4-12.1-28.6c-0.5-2.5-2.6-4.4-5.2-4.7l-19.4-1.9L20.5,138.4L20.5,138.4z"/>
<path class="st0" d="M129.2,221.4c39.6,0,71.6-32.1,71.6-71.6s-32.1-71.6-71.6-71.6s-71.6,32.1-71.6,71.6l0,0
	C57.6,189.3,89.7,221.4,129.2,221.4z M129.2,90.1c32.9,0,59.6,26.7,59.6,59.6s-26.7,59.6-59.6,59.6s-59.6-26.7-59.6-59.6
	C69.6,116.8,96.3,90.2,129.2,90.1L129.2,90.1z"/>
<path class="st0" d="M117.1,171.1c2.3,2.3,6.1,2.3,8.4,0l35-34.2c2.4-2.3,2.5-6.1,0.2-8.5c-2.3-2.4-6.1-2.5-8.5-0.2c0,0,0,0-0.1,0.1
	l-30.8,30.1l-15.2-14.9c-2.4-2.3-6.2-2.2-8.5,0.2s-2.2,6.1,0.1,8.4L117.1,171.1z"/>
</svg>
