<?xml version="1.0" encoding="utf-8"?>
<!-- Generator: Adobe Illustrator 23.0.1, SVG Export Plug-In . SVG Version: 6.00 Build 0)  -->
<svg version="1.1" id="Layer_1" xmlns="http://www.w3.org/2000/svg" xmlns:xlink="http://www.w3.org/1999/xlink" x="0px" y="0px"
	 viewBox="0 0 856 192.4" style="enable-background:new 0 0 856 192.4;" xml:space="preserve">
<style type="text/css">
	.st0{fill-rule:evenodd;clip-rule:evenodd;fill:#5091CD;}
</style>
<g>
	<g>
		<path id="SVGID_3_" class="st0" d="M319.8,55.3c22.6,22.6,22.6,59.2,0,81.5c-22.6,22.6-59.2,22.6-81.5,0
			c-22.6-22.6-22.6-59.2,0-81.5C260.6,32.9,297.2,32.9,319.8,55.3z M278.9,0c24.5,0,49.3,9.4,68,28.1c37.5,37.5,37.5,98.3,0,136.1
			c-37.5,37.5-98.3,37.5-136.1,0c-37.5-37.5-37.5-98.3,0-136.1C229.6,9.4,254.2,0,278.9,0L278.9,0z M521.8,55.3
			c22.6,22.6,22.6,59.2,0,81.5c-22.6,22.6-59.2,22.6-81.5,0c-22.6-22.6-22.6-59.2,0-81.5C462.6,32.9,499.2,32.9,521.8,55.3z
			 M548.9,28.1c37.5,37.5,37.5,98.3,0,136.1c-37.5,37.5-98.3,37.5-136.1,0c-37.5-37.5-37.5-98.3,0-136.1C431.6,9.4,456.1,0,480.9,0
			C505.7,0,530.2,9.4,548.9,28.1z M38.5,191.9l9.6,0.5h144.3l-0.5-9.6c-1.2-15.9-12.5-27.4-28.4-28.4l-9.6-0.5H67.3L182.7,38.5
			l-0.5-9.6C181.5,13,169.8,1.2,153.9,0.5L144.3,0H0l0.5,9.6C1.7,25.2,13.2,37,28.9,38l9.6,0.5H125L9.6,153.9l0.5,9.6
			C11.1,179.4,22.6,190.9,38.5,191.9z M696.8,57.7c3.4,5.8,4.3,12,4.8,19.2l0.5,9.6v67.3l0.5,9.6c1,15.6,12.5,27.4,28.4,28.4
			l9.6,0.5V86.6l0.5-9.6c0.5-7.2,1.4-13.7,4.8-19.5c6.7-11.5,19-19,33.2-19c14.2,0,26.7,7.7,33.4,19.2c3.4,5.8,4.3,12.3,4.6,19.2
			l0.5,9.6v67.3l0.5,9.6c1,15.9,12.5,27.4,28.4,28.4l9.6,0.5V86.6v-9.6C856,34.4,821.6,0,779.1,0c-23.1,0-43.5,10.1-57.7,26
			c-14.2-15.9-34.6-26-57.7-26c-15.9,0-30.8,4.8-43,13.2C613.1,4.8,596.3,0,586.7,0v192.4l9.6-0.5c16.1-1,27.7-12.5,28.4-28.4
			l0.5-9.6V86.6l0.5-9.6c0.5-7.2,1.4-13.7,4.8-19.2c6.7-11.5,19-19.2,33.2-19.2C677.8,38.5,690.3,46.2,696.8,57.7z"/>
	</g>
</g>
</svg>
